<svg width="76" height="76" viewBox="0 0 76 76" fill="none" xmlns="http://www.w3.org/2000/svg">
<path d="M15.2 18.9999H2.96402C1.55802 18.9999 0.152024 20.2159 0.342024 22.1919L6.27002 60.1539C6.27002 60.1539 13.3 32.1859 14.668 25.4599C15.086 23.4459 16.986 22.7999 18.392 22.7999H38C38 22.7999 35.34 14.8959 35.074 14.0219C34.618 12.3499 33.782 11.3999 32.11 11.3999H19.532C18.164 11.3999 16.872 12.2739 16.492 13.8319C16.15 15.3519 15.2 18.9999 15.2 18.9999ZM33.744 18.9999H18.544C18.544 18.9999 20.14 15.1999 21.85 15.1999H29.944C31.768 15.1999 33.744 18.9999 33.744 18.9999ZM10.146 61.7499C8.96802 63.5359 7.25802 64.5999 5.35802 64.5999H65.132C67.184 64.5999 68.628 63.4219 69.046 61.4459C70.718 53.1239 75.43 29.3739 75.43 29.3739C75.696 27.4739 74.29 26.5999 73.074 26.5999H60.8V21.0139C60.8 20.4059 59.812 18.9999 58.292 18.9999H44.004C42.028 18.9999 40.698 21.2039 40.698 21.2039L38 26.5999H21.242C20.026 26.5999 18.848 27.3219 18.62 28.4999C18.62 28.4999 12.578 53.9599 12.084 56.3539C11.818 57.7599 11.248 60.1159 10.146 61.7499ZM58.444 26.5999H41.8C41.8 26.5999 44.004 22.7999 46.094 22.7999H54.796C57.494 22.7999 58.444 26.5999 58.444 26.5999Z" fill="white"/>
</svg>
