<svg width="36" height="36" viewBox="0 0 36 36" fill="none" xmlns="http://www.w3.org/2000/svg">
<g clip-path="url(#clip0_122_809)">
<path d="M33.0997 27.6306C31.1386 27.5769 29.6412 27.7602 28.3601 28.2997C27.9964 28.4535 27.4165 28.4569 27.3571 28.9128C27.5571 29.1226 27.5878 29.4356 27.7472 29.6938C28.0527 30.1871 28.5691 30.8506 29.0295 31.1991C29.5326 31.5782 30.0512 31.9846 30.5907 32.3131C31.5509 32.8987 32.6222 33.2328 33.5449 33.8184C34.09 34.1643 34.6303 34.5994 35.1621 34.9895C35.4248 35.1819 35.6017 35.4817 35.942 35.6026V35.5478C35.7629 35.3194 35.7167 35.005 35.5519 34.7667L34.8269 34.0417C34.1181 33.1012 33.2184 32.2751 32.2627 31.5895C31.5002 31.0413 29.7931 30.3019 29.4755 29.4154L29.4196 29.3594C29.9601 29.2978 30.5929 29.1024 31.0927 28.9682C31.9308 28.744 32.6804 28.8023 33.5449 28.5781L34.7161 28.2443V28.0212C34.2787 27.5729 33.9668 26.9786 33.4901 26.5722C32.2411 25.5088 30.8787 24.4474 29.4758 23.562C28.6979 23.071 27.7366 22.7512 26.9116 22.3349C26.6338 22.1954 26.1469 22.1217 25.9636 21.8889C25.5307 21.3373 25.2945 20.6376 24.9606 19.9938C24.2609 18.6458 23.5741 17.1748 22.9533 15.7565C22.5303 14.7898 22.2547 13.8361 21.7274 12.9693C19.1961 8.80764 16.4716 6.29523 12.2506 3.82642C11.3521 3.30133 10.2709 3.09377 9.12821 2.82236L7.28799 2.71127C6.91337 2.55517 6.5244 2.09702 6.17283 1.87399C4.77474 0.990016 1.18768 -0.931484 0.151553 1.59527C-0.502072 3.18939 1.12946 4.74499 1.71277 5.55358C2.12255 6.11945 2.64652 6.75536 2.93874 7.39267C3.13224 7.8123 3.16515 8.23192 3.32996 8.67489C3.7344 9.76698 4.08793 10.9555 4.61218 11.9641C4.87683 12.4749 5.16905 13.0123 5.5043 13.4694C5.70877 13.7495 6.06118 13.8738 6.11743 14.3055C5.77233 14.7879 5.75265 15.536 5.55943 16.1457C4.68812 18.8935 5.01774 22.3079 6.28449 24.3405C6.67346 24.9657 7.58977 26.3036 8.84865 25.7906C9.95058 25.3412 9.70449 23.9515 10.0198 22.7245C10.0912 22.4466 10.0473 22.2421 10.1868 22.0554V22.1113L11.1909 24.1175C11.9337 25.3139 13.2508 26.5641 14.3682 27.4078C14.9473 27.8452 15.4032 28.6009 16.1524 28.8568V28.8009H16.0965C15.9513 28.5745 15.7241 28.4811 15.5396 28.3C15.1034 27.8716 14.6179 27.3398 14.2574 26.8498C13.2412 25.4711 12.3435 23.9614 11.5261 22.3906C11.1349 21.6402 10.7955 20.8131 10.4658 20.0495C10.3384 19.755 10.3407 19.309 10.0757 19.1574C9.71546 19.7165 9.18361 20.1693 8.90462 20.8294C8.45968 21.8852 8.40146 23.1739 8.23665 24.5087C8.13877 24.5439 8.1818 24.5197 8.12471 24.5647C7.3479 24.3768 7.07565 23.578 6.78652 22.8915C6.05696 21.1579 5.92083 18.3662 6.56349 16.369C6.72943 15.8527 7.48093 14.2268 7.17662 13.7489C7.03149 13.2733 6.55252 12.9974 6.28449 12.6338C5.95261 12.1843 5.62215 11.5923 5.39237 11.0725C4.79471 9.72114 4.51683 8.20295 3.88712 6.83636C3.58618 6.18273 3.07852 5.52124 2.66115 4.9413C2.19849 4.29752 1.68127 3.82277 1.32296 3.04511C1.19555 2.76836 1.02315 2.32539 1.21102 2.04217C1.27149 1.8498 1.35615 1.76964 1.54599 1.7072C1.86887 1.45774 2.76999 1.79074 3.10608 1.93024C4.00046 2.30149 4.74633 2.6553 5.5043 3.15733C5.86683 3.3978 6.23499 3.86383 6.6743 3.99348H7.17633C7.96074 4.17377 8.83965 4.04833 9.57343 4.27136C10.8697 4.66567 12.031 5.2788 13.0857 5.94452C16.2981 7.97374 18.9261 10.8608 20.7233 14.3072C21.0121 14.8621 21.1376 15.3906 21.3924 15.9792C21.9054 17.1658 22.5526 18.3865 23.0633 19.5477C23.5741 20.7045 24.0707 21.8737 24.7924 22.837C25.1716 23.3435 26.6349 23.6149 27.3006 23.8961C27.7675 24.0927 28.5322 24.2983 28.9738 24.5652C29.8175 25.074 30.6348 25.6804 31.4271 26.2373C31.8214 26.5163 33.0387 27.1283 33.0991 27.6314L33.0997 27.6306ZM8.17955 6.39058C7.7709 6.38299 7.48205 6.43445 7.17662 6.50167V6.55764H7.23146C7.42693 6.95758 7.7709 7.21577 8.01249 7.56058L8.56937 8.7317L8.62533 8.67686C8.97043 8.43302 9.12849 8.04405 9.12624 7.44977C8.98787 7.30352 8.96818 7.12239 8.84724 6.94773C8.68918 6.71598 8.38037 6.5852 8.17927 6.39086L8.17955 6.39058Z" fill="#00618A"/>
</g>
<defs>
<clipPath id="clip0_122_809">
<rect width="36" height="36" fill="white"/>
</clipPath>
</defs>
</svg>
