<svg width="48" height="48" viewBox="0 0 48 48" fill="none" xmlns="http://www.w3.org/2000/svg">
<g clip-path="url(#clip0_122_765)">
<path d="M33.4628 2.19601H30.6938L33.5734 5.32089V6.80851H27.6424V5.06664H30.5216L27.6424 1.94176V0.452637H33.4628V2.19601ZM26.4664 2.19601H23.6974L26.577 5.32089V6.80851H20.6456V5.06664H23.5253L20.6456 1.94176V0.452637H26.4664V2.19601ZM19.5386 2.26726H16.5506V4.99389H19.5386V6.80851H14.4266V0.452637H19.5386V2.26726Z" fill="#131313"/>
<path d="M10.3549 43.7648L7.31848 9.7099H40.6811L37.6421 43.7592L23.9794 47.5474L10.3549 43.7648Z" fill="#1572B6"/>
<path d="M24.0004 44.652L35.04 41.5913L37.6372 12.4946H24.0004V44.652Z" fill="#33A9DC"/>
<path d="M24 24.8325H29.5267L29.9089 20.5556H24V16.3788H34.4734L34.3733 17.4993L33.3469 29.0088H24V24.8325Z" fill="white"/>
<path d="M24.0251 35.6798L24.0067 35.685L19.3552 34.4288L19.0575 31.0977H14.8654L15.4507 37.6557L24.006 40.0305L24.0255 40.0249L24.0251 35.6798Z" fill="#EBEBEB"/>
<path d="M29.172 28.8323L28.6687 34.4258L24.0105 35.6831V40.0286L32.5729 37.6557L32.6359 36.9499L33.3626 28.8323H29.172Z" fill="white"/>
<path d="M24.0146 16.3788V20.5552H13.926L13.842 19.6166L13.6519 17.4993L13.5518 16.3788H24.0146ZM24 24.8328V29.0096H19.4074L19.3238 28.071L19.1333 25.9533L19.0331 24.8328H24Z" fill="#EBEBEB"/>
</g>
<defs>
<clipPath id="clip0_122_765">
<rect width="48" height="48" fill="white"/>
</clipPath>
</defs>
</svg>
