<svg width="48" height="48" viewBox="0 0 48 48" fill="none" xmlns="http://www.w3.org/2000/svg">
<path d="M10.4452 43.6328L7.42908 9.80365H40.5708L37.5517 43.6275L23.9797 47.3899L10.4452 43.6328Z" fill="#E44D26"/>
<path d="M24 44.514L34.9665 41.4735L37.5469 12.57H24V44.514Z" fill="#F16529"/>
<path d="M24.0001 25.1168H18.5097L18.1309 20.8676H24.0001V16.7186H13.5964L13.6954 17.832L14.7154 29.2654H24.0001V25.1168ZM24.0001 35.8916L23.9817 35.8965L19.3613 34.6485L19.0658 31.3399H14.9007L15.4819 37.8544L23.9809 40.2139L24.0001 40.2083V35.8916Z" fill="#EBEBEB"/>
<path d="M10.5127 0.610107H12.6209V2.69361H14.5499V0.610107H16.6586V6.91836H14.5499V4.80598H12.6213V6.91836H10.5127V0.610107ZM19.4309 2.70223H17.5747V0.610107H23.3966V2.70223H21.5396V6.91836H19.4309V2.70223ZM24.3206 0.610107H26.5188L27.8714 2.82673L29.2226 0.610107H31.4219V6.91836H29.3216V3.79161L27.8714 6.03448H27.8347L26.3834 3.79161V6.91836H24.3202V0.610107H24.3206ZM32.4716 0.610107H34.5806V4.83336H37.5457V6.91873H32.4716V0.610107Z" fill="black"/>
<path d="M23.9857 25.1168V29.2654H29.0947L28.6132 34.6463L23.9857 35.8954V40.2116L32.4915 37.8544L32.5537 37.1531L33.5287 26.2305L33.63 25.1168H32.5117H23.9857ZM23.9857 16.7186V20.8676H34.0076L34.0905 19.935L34.2798 17.832L34.3792 16.7186H23.9857Z" fill="white"/>
</svg>
