<svg width="48" height="48" viewBox="0 0 48 48" fill="none" xmlns="http://www.w3.org/2000/svg">
<g clip-path="url(#clip0_111_1590)">
<path d="M24 48C37.2548 48 48 37.2548 48 24C48 10.7452 37.2548 0 24 0C10.7452 0 0 10.7452 0 24C0 37.2548 10.7452 48 24 48Z" fill="black"/>
<path d="M39.8689 42.0053L18.4376 14.4H14.4V33.5921H17.6302V18.5021L37.3327 43.9586C38.2206 43.3647 39.0679 42.7121 39.8689 42.0053Z" fill="url(#paint0_linear_111_1590)"/>
<path d="M30.6667 14.4H33.8666V33.6H30.6667V14.4Z" fill="url(#paint1_linear_111_1590)"/>
</g>
<defs>
<linearGradient id="paint0_linear_111_1590" x1="29.0666" y1="31.0666" x2="38.5333" y2="42.8" gradientUnits="userSpaceOnUse">
<stop stop-color="white"/>
<stop offset="1" stop-color="white" stop-opacity="0"/>
</linearGradient>
<linearGradient id="paint1_linear_111_1590" x1="32.2666" y1="14.4" x2="32.213" y2="28.5" gradientUnits="userSpaceOnUse">
<stop stop-color="white"/>
<stop offset="1" stop-color="white" stop-opacity="0"/>
</linearGradient>
<clipPath id="clip0_111_1590">
<rect width="48" height="48" fill="white"/>
</clipPath>
</defs>
</svg>
