<svg width="48" height="48" viewBox="0 0 48 48" fill="none" xmlns="http://www.w3.org/2000/svg">
<path d="M8.50122 17.625H45.8775V45.2512H8.50122V17.625Z" fill="white"/>
<path d="M3 24.5V45H44V4H3V24.5ZM36.0394 22.86C37.0214 23.0879 37.914 23.6015 38.6044 24.336C38.9845 24.7318 39.3149 25.1723 39.5884 25.648C39.5884 25.7005 37.8172 26.8977 36.7381 27.5668C36.6987 27.593 36.5413 27.4225 36.3674 27.1634C36.1704 26.8234 35.8905 26.539 35.5539 26.3365C35.2172 26.134 34.8347 26.0202 34.4421 26.0055C33.199 25.9202 32.3986 26.573 32.4052 27.6455C32.3952 27.9125 32.4564 28.1774 32.5823 28.413C32.8546 28.9805 33.363 29.3183 34.957 30.0071C37.8926 31.2699 39.1489 32.103 39.9295 33.2871C40.802 34.5991 40.9955 36.718 40.4051 38.2858C39.7491 39.9914 38.1419 41.1493 35.8689 41.533C34.8307 41.652 33.7818 41.641 32.7463 41.5002C31.1593 41.2387 29.6975 40.4767 28.5742 39.3256C28.197 38.909 27.4622 37.8234 27.5082 37.7446C27.6277 37.6554 27.7538 37.5754 27.8854 37.5052L29.404 36.6655L30.5815 35.9833L30.8275 36.3474C31.2428 36.9411 31.7711 37.4472 32.3822 37.8365C33.6942 38.5253 35.4851 38.4302 36.3707 37.6331C36.6681 37.3411 36.8536 36.954 36.8949 36.5392C36.9363 36.1245 36.8309 35.7084 36.597 35.3634C36.269 34.9074 35.613 34.5237 33.7795 33.7234C31.6639 32.8115 30.7521 32.2474 29.919 31.3486C29.399 30.7555 29.0151 30.0558 28.7939 29.2986C28.6291 28.4335 28.6047 27.5475 28.7218 26.6746C29.158 24.6312 30.6898 23.2044 32.9267 22.7813C33.9627 22.6533 35.012 22.682 36.0394 22.8666V22.86ZM26.4159 24.5787V26.2581H21.0925V41.4215H17.3172V26.2548H11.9806V24.6148C11.9639 24.0492 11.977 23.4832 12.02 22.919C12.0462 22.8895 15.3 22.8895 19.236 22.8895H26.3962L26.4159 24.5787Z" fill="#007ACC"/>
</svg>
