<svg width="48" height="48" viewBox="0 0 48 48" fill="none" xmlns="http://www.w3.org/2000/svg">
<path d="M2 6V10H46V6C46 4.93913 45.5786 3.92172 44.8284 3.17157C44.0783 2.42143 43.0609 2 42 2H6C4.93913 2 3.92172 2.42143 3.17157 3.17157C2.42143 3.92172 2 4.93913 2 6ZM8.014 8.016C7.61835 8.0164 7.23148 7.89943 6.90232 7.67991C6.57315 7.46039 6.3165 7.14817 6.16482 6.78275C6.01313 6.41734 5.97324 6.01514 6.05019 5.62705C6.12713 5.23895 6.31745 4.8824 6.59708 4.6025C6.8767 4.32259 7.23307 4.13191 7.62108 4.05458C8.0091 3.97724 8.41134 4.01673 8.7769 4.16805C9.14247 4.31937 9.45495 4.57571 9.6748 4.90465C9.89465 5.23359 10.012 5.62035 10.012 6.016C10.012 6.54643 9.80129 7.05514 9.42621 7.43021C9.05114 7.80529 8.54443 8.016 8.014 8.016ZM14.006 8.014C13.6104 8.014 13.2238 7.8967 12.8949 7.67694C12.566 7.45718 12.3096 7.14482 12.1582 6.77937C12.0069 6.41391 11.9673 6.01178 12.0444 5.62382C12.1216 5.23586 12.3121 4.87949 12.5918 4.59979C12.8715 4.32008 13.2279 4.1296 13.6158 4.05243C14.0038 3.97526 14.4059 4.01487 14.7714 4.16624C15.1368 4.31762 15.4492 4.57396 15.6689 4.90286C15.8887 5.23176 16.006 5.61844 16.006 6.014C16.006 6.54443 15.7953 7.05314 15.4202 7.42821C15.0451 7.80329 14.5364 8.014 14.006 8.014ZM2 12V40C2 41.0609 2.42143 42.0783 3.17157 42.8284C3.92172 43.5786 4.93913 44 6 44H42C43.0609 44 44.0783 43.5786 44.8284 42.8284C45.5786 42.0783 46 41.0609 46 40V12H2ZM42 40H6V16H42V40Z" fill="#15616D"/>
<path d="M18 36L19.4 34.6L20.8 33.2L18.2 30.6L15.6 28L18.2 25.4L20.8 22.8L19.4 21.4L18 20L14 24L10 28L14 32L18 36ZM27.2 33.2L28.6 34.6L30 36L34 32L38 28L34 24L30 20L28.6 21.4L27.2 22.8L29.8 25.4L32.4 28L29.8 30.6L27.2 33.2Z" fill="#15616D"/>
<path d="M18 36L19.4 34.6L20.8 33.2L18.2 30.6L15.6 28L18.2 25.4L20.8 22.8L19.4 21.4L18 20L14 24L10 28L14 32L18 36ZM27.2 33.2L28.6 34.6L30 36L34 32L38 28L34 24L30 20L28.6 21.4L27.2 22.8L29.8 25.4L32.4 28L29.8 30.6L27.2 33.2Z" fill="#15616D"/>
</svg>
