<svg width="48" height="48" viewBox="0 0 48 48" fill="none" xmlns="http://www.w3.org/2000/svg">
<path d="M6.59188 41.204L19.3199 28.476M35.3479 22.816L31.5379 34.248C31.4768 34.4308 31.3726 34.5963 31.234 34.7303C31.0955 34.8643 30.9267 34.963 30.7419 35.018L7.38588 41.962C7.17546 42.0245 6.95193 42.0281 6.73962 41.9724C6.52731 41.9166 6.33435 41.8037 6.18173 41.646C6.02912 41.4882 5.92271 41.2916 5.87407 41.0776C5.82543 40.8635 5.83643 40.6402 5.90588 40.432L13.4899 17.684C13.5442 17.5207 13.6331 17.3709 13.7504 17.245C13.8678 17.119 14.0108 17.0198 14.1699 16.954L24.9439 12.518C25.1629 12.4275 25.4038 12.4039 25.6363 12.4502C25.8687 12.4965 26.0822 12.6105 26.2499 12.778L35.0579 21.588C35.2155 21.7456 35.3261 21.9439 35.3773 22.1608C35.4285 22.3777 35.4183 22.6046 35.3479 22.816Z" stroke="#15616D" stroke-width="3" stroke-linecap="round" stroke-linejoin="round"/>
<path d="M36.8058 6.364L41.5338 11.092C41.8891 11.4319 42.173 11.8394 42.3686 12.2905C42.5643 12.7416 42.6679 13.2272 42.6733 13.7189C42.6788 14.2106 42.5859 14.6984 42.4003 15.1537C42.2146 15.609 41.9399 16.0227 41.5922 16.3704C41.2445 16.7181 40.8309 16.9928 40.3756 17.1784C39.9202 17.3641 39.4324 17.4569 38.9407 17.4515C38.4491 17.4461 37.9634 17.3425 37.5123 17.1468C37.0612 16.9511 36.6538 16.6673 36.3138 16.312L31.5838 11.584C30.9167 10.8867 30.5491 9.95589 30.5598 8.9909C30.5705 8.02592 30.9585 7.10347 31.6409 6.42108C32.3233 5.7387 33.2458 5.35062 34.2107 5.33995C35.1757 5.32928 36.1085 5.69687 36.8058 6.364Z" fill="#15616D" stroke="#15616D" stroke-width="3" stroke-linecap="round" stroke-linejoin="round"/>
<path d="M22.5881 23.5597C22.9541 23.717 23.2852 23.9455 23.5619 24.232C24.1084 24.7978 24.4108 25.5556 24.4039 26.3422C24.3971 27.1288 24.0816 27.8813 23.5254 28.4375C22.9691 28.9937 22.2167 29.3092 21.4301 29.3161C20.6435 29.3229 19.8857 29.0205 19.3199 28.474C19.0334 28.1973 18.8048 27.8663 18.6476 27.5002C18.4904 27.1342 18.4076 26.7406 18.4042 26.3422C18.4007 25.9439 18.4766 25.5489 18.6275 25.1802C18.7783 24.8115 19.0011 24.4765 19.2827 24.1948C19.5644 23.9132 19.8994 23.6904 20.2681 23.5396C20.6367 23.3887 21.0318 23.3128 21.4301 23.3163C21.8285 23.3197 22.2221 23.4025 22.5881 23.5597Z" stroke="#15616D" stroke-width="3" stroke-linecap="round" stroke-linejoin="round"/>
</svg>
