<svg width="48" height="48" viewBox="0 0 48 48" fill="none" xmlns="http://www.w3.org/2000/svg">
<path d="M23.031 4.24648L6.9705 13.2915C6.67722 13.453 6.43254 13.6901 6.26188 13.9781C6.09121 14.2662 6.00079 14.5947 6 14.9295V33.045C6.0014 33.3801 6.09188 33.7088 6.26215 33.9974C6.43243 34.286 6.67637 34.5242 6.969 34.6875L23.0325 43.746C23.3288 43.9126 23.663 44.0001 24.003 44.0001C24.343 44.0001 24.6772 43.9126 24.9735 43.746L41.031 34.689C41.3238 34.5256 41.5679 34.2872 41.7382 33.9983C41.9085 33.7093 41.9989 33.3803 42 33.045V14.94C41.9995 14.6049 41.9092 14.2761 41.7385 13.9878C41.5678 13.6994 41.323 13.4621 41.0295 13.3005L24.975 4.25398C24.6787 4.08735 24.3445 3.99982 24.0045 3.99982C23.6645 3.99982 23.3303 4.08735 23.034 4.25398L23.031 4.24648Z" fill="#388E3C"/>
<path d="M6.45749 34.176C6.61416 34.3756 6.80829 34.5428 7.02899 34.668L20.8065 42.438L23.1015 43.731C23.4407 43.924 23.83 44.0107 24.219 43.98C24.3478 43.9688 24.4754 43.9457 24.6 43.911L41.5395 13.623C41.4103 13.4853 41.2617 13.367 41.0985 13.272L30.57 7.34101L25.0125 4.21801C24.8548 4.13006 24.6857 4.06444 24.51 4.02301L6.45749 34.176Z" fill="#4CAF50"/>
<path d="M41.5395 34.176C41.3833 34.3755 41.1897 34.5426 40.9695 34.668L27.192 42.438L24.897 43.731C24.5578 43.924 24.1685 44.0107 23.7795 43.98C23.6506 43.9688 23.5231 43.9457 23.3985 43.911L6.45749 13.62C6.58717 13.4822 6.73624 13.3639 6.89999 13.269L17.427 7.34101L22.9845 4.21801C23.1422 4.13006 23.3113 4.06444 23.487 4.02301L41.5395 34.176Z" fill="#66BB6A"/>
</svg>
