<svg width="96" height="96" viewBox="0 0 96 96" fill="none" xmlns="http://www.w3.org/2000/svg">
<path d="M55.9999 39.9999L43.9999 51.9999M81.1519 12.1239C81.5315 11.9929 81.9403 11.9714 82.3315 12.0617C82.7227 12.152 83.0806 12.3506 83.3643 12.6347C83.6481 12.9189 83.8461 13.2771 83.9359 13.6684C84.0256 14.0598 84.0035 14.4685 83.8719 14.8479L60.1759 82.5679C60.0341 82.9727 59.774 83.3256 59.4292 83.5807C59.0844 83.8358 58.6709 83.9815 58.2423 83.9987C57.8137 84.016 57.3898 83.904 57.0257 83.6774C56.6615 83.4508 56.3738 83.12 56.1999 82.7279L43.3239 53.7599C43.1073 53.2782 42.7217 52.8925 42.2399 52.6759L13.2719 39.7959C12.8811 39.6214 12.5516 39.3337 12.326 38.97C12.1003 38.6063 11.9889 38.1833 12.0061 37.7557C12.0234 37.328 12.1684 36.9154 12.4226 36.571C12.6768 36.2266 13.0284 35.9664 13.4319 35.8239L81.1519 12.1239Z" stroke="black" stroke-width="3" stroke-linecap="round" stroke-linejoin="round"/>
</svg>
