<svg width="48" height="48" viewBox="0 0 48 48" fill="none" xmlns="http://www.w3.org/2000/svg">
<g clip-path="url(#clip0_111_1546)">
<path d="M36.75 0H11.25C5.0368 0 0 5.0368 0 11.25V36.75C0 42.9632 5.0368 48 11.25 48H36.75C42.9632 48 48 42.9632 48 36.75V11.25C48 5.0368 42.9632 0 36.75 0Z" fill="white"/>
<path d="M15.8897 20.9927C15.8897 21.4491 15.939 21.819 16.0252 22.0905C16.1347 22.3959 16.2667 22.6928 16.4201 22.9787C16.4818 23.0773 16.5064 23.1759 16.5064 23.2624C16.5064 23.3858 16.4323 23.5091 16.272 23.6323L15.4948 24.1506C15.3838 24.2244 15.2728 24.2616 15.1742 24.2616C15.0508 24.2616 14.9274 24.1999 14.8041 24.0889C14.6379 23.9102 14.4892 23.7161 14.3601 23.5091C14.2222 23.2721 14.0946 23.0292 13.9776 22.7812C13.0154 23.9163 11.8066 24.4837 10.3509 24.4836C9.31481 24.4836 8.48831 24.1875 7.88381 23.5954C7.2795 23.0033 6.97106 22.2139 6.97106 21.2271C6.97106 20.1784 7.34119 19.3273 8.09362 18.6859C8.84606 18.0444 9.84525 17.7236 11.1157 17.7236C11.5352 17.7236 11.967 17.7608 12.4234 17.8224C12.8797 17.8841 13.3485 17.9827 13.842 18.0938V17.1932C13.842 16.2557 13.6446 15.6019 13.2622 15.2196C12.8674 14.8371 12.2014 14.6522 11.2515 14.6522C10.8197 14.6522 10.3757 14.7015 9.91931 14.8125C9.46294 14.9235 9.01875 15.0592 8.58694 15.2319C8.44667 15.2946 8.30249 15.3482 8.15531 15.3923C8.06906 15.417 8.00719 15.4294 7.95787 15.4294C7.78537 15.4294 7.69875 15.306 7.69875 15.0469V14.4424C7.69875 14.2451 7.7235 14.097 7.78519 14.0107C7.84687 13.9245 7.95787 13.8381 8.13056 13.7516C8.56231 13.5296 9.08044 13.3446 9.68494 13.1966C10.2892 13.0361 10.9307 12.9623 11.6092 12.9623C13.0772 12.9623 14.1502 13.2952 14.8412 13.9612C15.5196 14.6274 15.8649 15.639 15.8649 16.9959V20.9927H15.8897ZM10.8816 22.8677C11.2884 22.8677 11.7079 22.7936 12.1521 22.6455C12.5961 22.4976 12.9907 22.2261 13.3239 21.8561C13.5212 21.6217 13.6693 21.3626 13.7432 21.0666C13.8171 20.7705 13.8666 20.4128 13.8666 19.9935V19.4752C13.4925 19.3842 13.1137 19.3143 12.7318 19.2656C12.3472 19.217 11.9598 19.1922 11.5721 19.1916C10.7456 19.1916 10.1413 19.3521 9.73425 19.6851C9.32719 20.0181 9.12975 20.4868 9.12975 21.1037C9.12975 21.6834 9.27787 22.1151 9.58612 22.4111C9.88237 22.7196 10.3142 22.8677 10.8816 22.8677ZM20.7866 24.1999C20.5646 24.1999 20.4165 24.1628 20.3179 24.0765C20.2192 24.0024 20.1328 23.8298 20.0589 23.5954L17.1602 14.0601C17.0859 13.8133 17.049 13.653 17.049 13.5666C17.049 13.3693 17.1476 13.2581 17.3451 13.2581H18.5539C18.7882 13.2581 18.9487 13.2952 19.035 13.3815C19.1336 13.4556 19.2077 13.6282 19.2817 13.8626L21.354 22.0288L23.2785 13.8626C23.3402 13.6159 23.4141 13.4557 23.5129 13.3815C23.6115 13.3076 23.7842 13.2583 24.0062 13.2583H24.993C25.2274 13.2583 25.3879 13.2952 25.4865 13.3815C25.5851 13.4556 25.6716 13.6282 25.7209 13.8626L27.6699 22.1274L29.8039 13.8626C29.8779 13.6159 29.9644 13.4557 30.0506 13.3815C30.1493 13.3076 30.3097 13.2583 30.5317 13.2583H31.6789C31.8763 13.2583 31.9873 13.3569 31.9873 13.5666C31.9873 13.6284 31.9749 13.6899 31.9626 13.764C31.9504 13.8381 31.9256 13.9365 31.8763 14.0724L28.9035 23.6077C28.8294 23.8545 28.743 24.0149 28.6444 24.0889C28.5457 24.1628 28.3853 24.2123 28.1756 24.2123H27.1147C26.8804 24.2123 26.7201 24.1751 26.6214 24.0889C26.5226 24.0024 26.4364 23.8421 26.3871 23.5954L24.4749 15.639L22.5754 23.583C22.5137 23.8298 22.4396 23.9901 22.341 24.0765C22.2422 24.1628 22.0695 24.1999 21.8475 24.1999H20.7866ZM36.6379 24.5329C35.9964 24.5329 35.355 24.4588 34.7381 24.3109C34.1214 24.1628 33.6403 24.0024 33.3195 23.8174C33.1222 23.7064 32.9865 23.583 32.9372 23.472C32.8892 23.3631 32.864 23.2456 32.8631 23.1266V22.4976C32.8631 22.2384 32.9618 22.1151 33.1468 22.1151C33.2209 22.1151 33.2949 22.1274 33.3688 22.1522C33.4429 22.1767 33.5539 22.2261 33.6772 22.2756C34.113 22.4671 34.5679 22.6118 35.0342 22.7072C35.5173 22.8053 36.0091 22.8549 36.5021 22.8553C37.2793 22.8553 37.8836 22.7196 38.3031 22.4482C38.7225 22.1768 38.9445 21.7821 38.9445 21.2764C38.9445 20.931 38.8335 20.6471 38.6115 20.4127C38.3895 20.1784 37.9701 19.9687 37.3656 19.7713L35.577 19.2163C34.6764 18.9326 34.0102 18.5132 33.6032 17.9582C33.1961 17.4154 32.9865 16.8107 32.9865 16.1694C32.9865 15.6514 33.0975 15.195 33.3195 14.8001C33.5415 14.4054 33.8376 14.0601 34.2077 13.7888C34.5778 13.5049 34.9972 13.2952 35.4906 13.1471C35.9841 12.999 36.5021 12.9375 37.0449 12.9375C37.3162 12.9375 37.5999 12.9499 37.8714 12.9868C38.1551 13.0238 38.4141 13.0731 38.6732 13.1226C38.9199 13.1842 39.1543 13.2459 39.3763 13.32C39.5983 13.3939 39.771 13.4679 39.8944 13.542C40.0671 13.6406 40.1904 13.7392 40.2645 13.8502C40.3385 13.949 40.3755 14.0848 40.3755 14.2575V14.8373C40.3755 15.0962 40.2769 15.2319 40.0918 15.2319C39.993 15.2319 39.8327 15.1826 39.6231 15.0838C38.9199 14.7632 38.1304 14.6029 37.2546 14.6029C36.5514 14.6029 35.9964 14.7139 35.6139 14.9482C35.2314 15.1826 35.0342 15.5404 35.0342 16.0461C35.0342 16.3914 35.1576 16.6875 35.4043 16.9219C35.6511 17.1562 36.1074 17.3906 36.7612 17.6002L38.5129 18.1553C39.4009 18.4391 40.0425 18.8338 40.4248 19.3397C40.8071 19.8456 40.9922 20.4251 40.9922 21.0666C40.9922 21.597 40.8812 22.0781 40.6716 22.4976C40.4496 22.917 40.1535 23.2869 39.771 23.583C39.3887 23.8914 38.9321 24.1134 38.4019 24.2739C37.8467 24.4466 37.2669 24.5329 36.6379 24.5329Z" fill="#252F3E"/>
<path fill-rule="evenodd" clip-rule="evenodd" d="M38.9694 30.528C34.911 33.5255 29.0147 35.1169 23.9447 35.1169C16.8396 35.1169 10.4372 32.4892 5.60175 28.1225C5.21925 27.7772 5.56481 27.3084 6.02119 27.5797C11.2515 30.6142 17.703 32.4523 24.3765 32.4523C28.8789 32.4523 33.8256 31.5148 38.3773 29.5905C39.0557 29.282 39.6354 30.0345 38.9694 30.528Z" fill="#FF9900"/>
<path fill-rule="evenodd" clip-rule="evenodd" d="M40.6594 28.6037C40.1413 27.9375 37.2302 28.2829 35.9102 28.4432C35.5155 28.4927 35.4538 28.1471 35.8116 27.8882C38.1306 26.2599 41.9423 26.7287 42.3864 27.2713C42.8304 27.8265 42.2631 31.6382 40.092 33.4639C39.7588 33.7476 39.4382 33.5994 39.5861 33.2295C40.0796 32.0083 41.1774 29.2573 40.6594 28.6037Z" fill="#FF9900"/>
</g>
<defs>
<clipPath id="clip0_111_1546">
<rect width="48" height="48" fill="white"/>
</clipPath>
</defs>
</svg>
