<svg width="48" height="48" viewBox="0 0 48 48" fill="none" xmlns="http://www.w3.org/2000/svg">
<g clip-path="url(#clip0_111_1568)">
<path d="M36.75 0H11.25C5.0368 0 0 5.0368 0 11.25V36.75C0 42.9632 5.0368 48 11.25 48H36.75C42.9632 48 48 42.9632 48 36.75V11.25C48 5.0368 42.9632 0 36.75 0Z" fill="white"/>
<path d="M24.0002 27.5533C25.9322 27.5533 27.4982 25.9871 27.4982 24.0553C27.4982 22.1235 25.9322 20.5573 24.0002 20.5573C22.0682 20.5573 20.5022 22.1235 20.5022 24.0553C20.5022 25.9871 22.0684 27.5533 24.0002 27.5533Z" fill="#00D8FF"/>
<path d="M24.0004 16.9431C28.6969 16.9431 33.0598 17.6169 36.3495 18.7496C40.3131 20.1141 42.75 22.1824 42.75 24.0553C42.75 26.007 40.1674 28.2043 35.9109 29.6145C32.6931 30.6806 28.4586 31.2371 24.0004 31.2371C19.4295 31.2371 15.1011 30.7147 11.8468 29.6027C7.72969 28.1955 5.25 25.9699 5.25 24.0553C5.25 22.1976 7.57687 20.1452 11.4847 18.7828C14.7866 17.6316 19.2572 16.9431 23.9996 16.9431H24.0004Z" stroke="#00D8FF" stroke-width="1.67081"/>
<path d="M17.8089 20.5196C20.1553 16.4512 22.9185 13.0084 25.5431 10.7246C28.7051 7.97269 31.7145 6.89494 33.3367 7.83037C35.0274 8.80537 35.6407 12.1406 34.7361 16.5322C34.0526 19.8523 32.4187 23.7984 30.1914 27.6606C27.9079 31.6202 25.2932 35.1088 22.7044 37.3716C19.4286 40.2351 16.2615 41.2714 14.6031 40.3149C12.9937 39.3876 12.3784 36.3461 13.1505 32.2802C13.8028 28.8446 15.4399 24.6279 17.8082 20.5196H17.8089Z" stroke="#00D8FF" stroke-width="1.67081"/>
<path d="M17.8148 27.6709C15.4618 23.607 13.8598 19.4929 13.1912 16.0785C12.3863 11.9645 12.9553 8.81924 14.5763 7.88099C16.2654 6.90299 19.461 8.03736 22.8139 11.0145C25.3489 13.2652 27.9519 16.6509 30.1856 20.5093C32.4758 24.4652 34.1921 28.473 34.8598 31.8457C35.7047 36.114 35.0209 39.3752 33.3639 40.3342C31.7563 41.265 28.8143 40.2797 25.6772 37.58C23.0267 35.2993 20.1909 31.7752 17.8148 27.6709Z" stroke="#00D8FF" stroke-width="1.67081"/>
</g>
<defs>
<clipPath id="clip0_111_1568">
<rect width="48" height="48" fill="white"/>
</clipPath>
</defs>
</svg>
