<svg width="100" height="58" viewBox="0 0 100 58" fill="none" xmlns="http://www.w3.org/2000/svg">
<path d="M45.8347 12.1666C58.788 9.12404 70.9136 8.15679 80.0387 9.03991C84.6037 9.48174 88.3894 10.3839 91.1464 11.7004C93.9088 13.0194 95.5633 14.7157 96.0319 16.7111C96.5005 18.7063 95.774 20.9611 93.8879 23.372C92.0053 25.7782 89.0172 28.2714 85.1262 30.6995C77.3486 35.5528 66.0604 40.0851 53.1071 43.1277C40.1537 46.1702 28.0281 47.1375 18.9031 46.2544C14.3381 45.8125 10.5523 44.9104 7.79539 43.5939C5.0333 42.2749 3.37883 40.5793 2.91005 38.5842C2.44138 36.5889 3.16768 34.3333 5.05389 31.9223C6.93643 29.5161 9.92461 27.0229 13.8156 24.5948C21.5932 19.7415 32.8814 15.2092 45.8347 12.1666Z" stroke="black"/>
<path d="M23.0172 42.5276C22.0178 42.7624 21.194 42.6956 20.546 42.3274C19.8979 41.9592 19.4443 41.2234 19.1852 40.1201L18.0693 35.3694L16.648 35.7032L16.1221 33.4641L17.5434 33.1303L17.0632 31.0859L19.6276 30.196L20.1718 32.5129L22.3135 32.0098L22.8395 34.2489L20.6978 34.752L21.7816 39.3664C21.928 39.9894 22.2737 40.2369 22.8189 40.1089L23.9092 39.8528L24.458 42.1892L23.0172 42.5276ZM25.0835 42.0423L21.745 27.8291L24.3735 27.2117L25.6631 32.7023C25.9522 31.4839 26.8431 30.6994 28.3358 30.3488C29.0627 30.178 29.7578 30.1928 30.4212 30.3931C31.0845 30.5934 31.6581 30.9654 32.142 31.5092C32.6258 32.053 32.9683 32.7532 33.1695 33.6099L34.6238 39.8014L31.9954 40.4188L30.692 34.8698C30.4847 33.9871 30.1341 33.3984 29.6402 33.1035C29.1433 32.7956 28.5704 32.7179 27.9214 32.8703C27.3632 33.0014 26.9173 33.3185 26.5834 33.8215C26.2595 34.3084 26.2012 34.9933 26.4086 35.8759L27.7119 41.4249L25.0835 42.0423ZM35.6057 39.5707L33.2276 29.4463L35.7782 28.8472L36.2309 30.7747C36.229 30.0082 36.4434 29.3758 36.8741 28.8774C37.3019 28.366 37.9632 28.0326 38.858 27.8772L39.4388 30.3499L39.0689 30.4368C38.316 30.6137 37.7364 31.0032 37.33 31.6054C36.9236 32.2076 36.8195 32.9306 37.0177 33.7743L38.2342 38.9533L35.6057 39.5707ZM46.2476 37.3382C45.2092 37.5821 44.2247 37.5599 43.2942 37.2718C42.3636 36.9836 41.5717 36.4985 40.9185 35.8164C40.2751 35.1184 39.8391 34.2826 39.6105 33.3091C39.3818 32.3356 39.4001 31.3931 39.6654 30.4816C39.9436 29.5671 40.4352 28.7737 41.1402 28.1013C41.8451 27.429 42.7168 26.9709 43.7552 26.727C44.8066 26.48 45.7911 26.5021 46.7086 26.7934C47.6392 27.0816 48.4261 27.5747 49.0695 28.2727C49.7258 28.9677 50.1683 29.802 50.3969 30.7755C50.6256 31.749 50.6008 32.693 50.3225 33.6075C50.0542 34.506 49.5676 35.2915 48.8626 35.9638C48.1707 36.6331 47.299 37.0912 46.2476 37.3382ZM45.6851 34.9433C46.2433 34.8122 46.6995 34.5681 47.0539 34.211C47.4052 33.8408 47.6394 33.4092 47.7564 32.916C47.8864 32.4198 47.8904 31.9121 47.7685 31.3929C47.6434 30.8607 47.4123 30.4014 47.075 30.015C46.7507 29.6255 46.3503 29.3497 45.874 29.1877C45.3946 29.0126 44.8758 28.9907 44.3177 29.1218C43.7596 29.2529 43.3048 29.5035 42.9535 29.8737C42.5991 30.2308 42.3569 30.6575 42.2269 31.1537C42.1099 31.6469 42.1139 32.1595 42.2389 32.6917C42.3609 33.2109 42.584 33.6653 42.9084 34.0547C43.2457 34.4412 43.654 34.7219 44.1334 34.8969C44.6097 35.059 45.127 35.0744 45.6851 34.9433ZM56.0706 35.0103C55.3437 35.1811 54.6486 35.1663 53.9852 34.966C53.3218 34.7657 52.7482 34.3937 52.2644 33.8499C51.7775 33.2932 51.435 32.593 51.2368 31.7492L49.7825 25.5578L52.411 24.9404L53.7144 30.4893C53.9186 31.359 54.2433 31.9539 54.6882 32.2739C55.1332 32.594 55.6802 32.6778 56.3292 32.5254C56.8874 32.3943 57.3269 32.0787 57.6477 31.5788C57.9815 31.0758 58.0463 30.3895 57.842 29.5198L56.5387 23.9708L59.1671 23.3534L61.5452 33.4779L58.9946 34.077L58.6379 32.5583C58.5285 33.2004 58.2687 33.727 57.8586 34.1384C57.4584 34.5337 56.8624 34.8244 56.0706 35.0103ZM68.5091 36.2181C67.4837 36.459 66.5351 36.5311 65.6632 36.4346C64.8074 36.348 63.9906 36.0194 63.2129 35.4488L64.3956 33.1371C65.0039 33.5694 65.5906 33.822 66.1555 33.8947C66.7204 33.9675 67.3209 33.9292 67.9569 33.7798C68.4242 33.67 68.8316 33.4511 69.1791 33.1229C69.5266 32.7947 69.7669 32.3891 69.8999 31.9058C70.049 31.4325 70.061 30.9298 69.936 30.3976L69.8308 29.9498C69.668 30.4811 69.38 30.946 68.9668 31.3443C68.5666 31.7396 67.9576 32.0333 67.1399 32.2254C66.2183 32.4419 65.3262 32.4049 64.4636 32.1144C63.614 31.8209 62.8835 31.3351 62.2722 30.6569C61.6579 29.9657 61.2364 29.1334 61.0078 28.1599C60.7791 27.1864 60.7859 26.2534 61.0283 25.361C61.2707 24.4686 61.7084 23.7084 62.3416 23.0803C62.9847 22.4362 63.767 22.0059 64.6886 21.7894C65.5323 21.5913 66.2229 21.5866 66.7603 21.7754C67.3106 21.9611 67.7801 22.2686 68.1685 22.6978L67.8438 21.3154L70.4333 20.7072L72.601 29.936C72.845 30.9744 72.8282 31.9234 72.5507 32.7829C72.2862 33.6394 71.8053 34.3619 71.1081 34.9502C70.4138 35.5516 69.5475 35.9742 68.5091 36.2181ZM67.0057 29.73C67.8754 29.5257 68.4863 29.0946 68.8385 28.4366C69.1907 27.7786 69.2738 27.0538 69.0879 26.262C68.9019 25.4702 68.5047 24.8581 67.8964 24.4258C67.2881 23.9934 66.5491 23.8794 65.6794 24.0837C64.8228 24.2849 64.2183 24.7145 63.8661 25.3724C63.5269 26.0274 63.4502 26.7507 63.6362 27.5425C63.7551 28.0487 63.9687 28.4916 64.277 28.8712C64.5983 29.2477 64.9906 29.5185 65.454 29.6836C65.9173 29.8487 66.4346 29.8641 67.0057 29.73ZM73.8728 30.5823L70.5344 16.3691L73.1628 15.7517L74.4525 21.2423C74.7415 20.0239 75.6324 19.2394 77.1251 18.8888C77.852 18.7181 78.5472 18.7328 79.2105 18.9331C79.8739 19.1334 80.4475 19.5054 80.9313 20.0492C81.4152 20.593 81.7577 21.2932 81.9589 22.1499L83.4132 28.3414L80.7847 28.9588L79.4814 23.4098C79.274 22.5272 78.9234 21.9384 78.4296 21.6435C77.9327 21.3356 77.3598 21.2579 76.7107 21.4104C76.1526 21.5415 75.7066 21.8585 75.3728 22.3615C75.0489 22.8485 74.9906 23.5333 75.1979 24.4159L76.5013 29.9649L73.8728 30.5823Z" fill="#001524"/>
</svg>
