<svg width="40" height="40" viewBox="0 0 40 40" fill="none" xmlns="http://www.w3.org/2000/svg">
<path d="M20.7751 37.5L19.8364 37.1887C19.8364 37.1887 19.9614 32.4387 18.2426 32.105C17.1176 30.795 18.4089 -23.8213 22.5214 31.9187C21.7401 32.3133 21.1427 32.9958 20.8551 33.8225C20.6993 35.0421 20.6725 36.2747 20.7751 37.5Z" fill="url(#paint0_linear_122_813)"/>
<path d="M21.2825 32.9112C23.7823 31.03 25.6967 28.4778 26.8031 25.5513C27.9095 22.6249 28.1625 19.4445 27.5325 16.38C25.695 8.27375 21.3438 5.60875 20.875 4.59125C20.4718 3.95694 20.1267 3.28756 19.8438 2.59125L20.19 25.1775C20.19 25.1775 19.4725 32.08 21.2825 32.9112Z" fill="url(#paint1_linear_122_813)"/>
<path d="M19.3588 33.2113C19.3588 33.2113 11.7076 28 12.1501 18.7812C12.1913 16.0021 12.8286 13.2641 14.0187 10.7523C15.2088 8.24046 16.9242 6.01331 19.0488 4.22125C19.2968 4.01001 19.4938 3.74549 19.6252 3.44745C19.7565 3.1494 19.8189 2.82552 19.8076 2.5C20.2838 3.525 20.2063 17.8038 20.2563 19.4738C20.4501 25.97 19.8951 31.985 19.3588 33.2113Z" fill="url(#paint2_linear_122_813)"/>
<defs>
<linearGradient id="paint0_linear_122_813" x1="14.4647" y1="20.3154" x2="25.2543" y2="23.9768" gradientUnits="userSpaceOnUse">
<stop offset="0.231" stop-color="#999875"/>
<stop offset="0.563" stop-color="#9B9977"/>
<stop offset="0.683" stop-color="#A09F7E"/>
<stop offset="0.768" stop-color="#A9A889"/>
<stop offset="0.837" stop-color="#B7B69A"/>
<stop offset="0.896" stop-color="#C9C7B0"/>
<stop offset="0.948" stop-color="#DEDDCB"/>
<stop offset="0.994" stop-color="#F8F6EB"/>
<stop offset="1" stop-color="#FBF9EF"/>
</linearGradient>
<linearGradient id="paint1_linear_122_813" x1="18.4212" y1="2.42986" x2="23.1912" y2="32.216" gradientUnits="userSpaceOnUse">
<stop stop-color="#48A547"/>
<stop offset="1" stop-color="#3F9143"/>
</linearGradient>
<linearGradient id="paint2_linear_122_813" x1="11.4919" y1="19.6938" x2="24.2927" y2="15.4068" gradientUnits="userSpaceOnUse">
<stop stop-color="#41A247"/>
<stop offset="0.352" stop-color="#4BA74B"/>
<stop offset="0.956" stop-color="#67B554"/>
<stop offset="1" stop-color="#69B655"/>
</linearGradient>
</defs>
</svg>
