<svg width="44" height="43" viewBox="0 0 44 43" fill="none" xmlns="http://www.w3.org/2000/svg">
<path d="M2.75 2.6875H41.25V40.3125H2.75V2.6875Z" fill="#F5DE19"/>
<path d="M28.6124 32.082C28.9409 32.7328 29.4507 33.2798 30.0831 33.6601C30.7155 34.0404 31.4448 34.2387 32.1874 34.232C33.6861 34.232 34.6445 33.4997 34.6445 32.4852C34.6445 31.2758 33.66 30.8431 32.01 30.1376L31.1052 29.7587C28.4927 28.6716 26.7602 27.3104 26.7602 24.4321C26.7602 21.7809 28.8227 19.7612 32.0581 19.7612C33.1054 19.6875 34.1518 19.9166 35.0667 20.4201C35.9817 20.9236 36.7248 21.6791 37.2033 22.5925L34.375 24.3595C34.1906 23.9067 33.8698 23.5193 33.4551 23.2486C33.0403 22.9779 32.5513 22.8367 32.0526 22.8438C31.835 22.8225 31.6153 22.8457 31.4074 22.912C31.1995 22.9783 31.0081 23.0862 30.8452 23.2288C30.6823 23.3714 30.5517 23.5456 30.4615 23.7402C30.3713 23.9349 30.3236 24.1458 30.3215 24.3595C30.3215 25.4197 30.9939 25.8497 32.5462 26.5095L33.451 26.8884C36.5255 28.1771 38.2635 29.4899 38.2635 32.4422C38.2635 35.6255 35.7046 37.3697 32.2685 37.3697C30.9298 37.4522 29.5952 37.1548 28.4255 36.5132C27.2557 35.8717 26.3007 34.9134 25.6754 33.7537L28.6124 32.082ZM15.8317 32.3884C16.3996 33.3734 16.9166 34.2065 18.1596 34.2065C19.3476 34.2065 20.0983 33.7523 20.0983 31.9853V19.9628H23.716V32.0323C23.716 35.6927 21.516 37.3589 18.3136 37.3589C17.1816 37.4194 16.0574 37.1437 15.0888 36.5681C14.1201 35.9925 13.3524 35.1439 12.8865 34.1339L15.8317 32.3884Z" fill="black"/>
</svg>
